<svg width="124" height="133" viewBox="0 0 124 133" fill="none" xmlns="http://www.w3.org/2000/svg">
<g clip-path="url(#clip0_69_3)">
<path d="M115.581 70.2191C109.841 63.6418 102.295 59.4207 92.939 57.556C102.542 52.0942 107.347 43.5256 107.347 31.8499C107.347 21.6727 104.102 13.7206 97.617 8.00717C91.5074 2.66906 83.269 0 72.9214 0H42.4468C41.7422 0.00297886 41.0496 0.020852 40.3674 0.0551089C39.8812 0.0774503 39.401 0.107239 38.9253 0.144475C32.7469 0.607687 27.4227 2.19691 22.9573 4.90469C22.8585 4.96427 22.7598 5.02682 22.6611 5.0864C21.4643 5.81622 20.3288 6.62647 19.2577 7.52161C12.4301 13.1293 8.96838 20.7284 8.96838 30.1088V109.495H0V132.997H7.5098V116.895H77.9119V133H82.0887C82.3326 133 82.5749 133 82.8187 132.996C83.6655 132.985 84.5002 132.957 85.326 132.908C85.3589 132.905 85.3933 132.903 85.4262 132.9C95.7051 132.275 104.512 128.707 111.839 122.199C119.944 115.121 124 105.869 124 94.4387C124 84.881 121.192 76.8039 115.581 70.2191ZM38.9253 109.494H16.562V30.1043C16.562 23.1725 19.2472 17.5589 24.5445 13.4212C28.5447 10.289 33.3678 8.4108 38.9253 7.82695V109.494ZM68.9391 109.494H46.4067V63.7014H68.9391V109.494ZM68.9391 56.0725H47.8473V56.068H46.4052V7.83886C51.5708 8.32888 57.4545 10.4096 61.1181 13.2634C66.3077 17.2923 68.9391 22.958 68.9391 30.1043V56.0725ZM72.0043 13.9723C72.0043 13.9723 71.9939 13.9559 71.9909 13.95C70.5203 11.6205 68.6668 9.51745 66.4243 7.63779H73.4794C80.8381 7.63779 87.0733 9.87044 92.1851 14.3402C97.1756 18.5627 99.6739 24.3983 99.6739 31.8499C99.6739 39.3015 97.3013 44.8929 92.5605 49.3611C88.2147 53.4586 82.8188 55.6868 76.3726 56.0234C76.3157 56.0263 76.2574 56.0293 76.1991 56.0323V29.7752C76.1991 23.6864 74.8033 18.4183 72.0043 13.9723ZM106.409 116.792C100.545 121.862 93.5479 124.68 85.4262 125.249V109.494H76.3726V63.7014H82.2757C91.8784 63.7014 99.8624 66.4389 106.223 71.8992C113.084 77.6156 116.513 85.1268 116.513 94.4387C116.513 103.751 113.145 111.083 106.409 116.792Z" fill="white"/>
</g>
<defs>
<clipPath id="clip0_69_3">
<rect width="124" height="133" fill="white"/>
</clipPath>
</defs>
</svg>
